<svg width="48" height="48" viewBox="0 0 48 48" fill="none" xmlns="http://www.w3.org/2000/svg">
<path d="M6 20V28C6 29.1 6.9 30 8 30H14L20.58 36.58C21.84 37.84 24 36.94 24 35.16V12.82C24 11.04 21.84 10.14 20.58 11.4L14 18H8C6.9 18 6 18.9 6 20ZM33 24C32.9996 22.3243 32.5313 20.6819 31.6479 19.2579C30.7646 17.8339 29.5012 16.6848 28 15.94V32.04C30.96 30.58 33 27.54 33 24ZM28 8.90005V9.30005C28 10.06 28.5 10.72 29.2 11C34.36 13.06 38 18.12 38 24C38 29.88 34.36 34.94 29.2 37C28.48 37.28 28 37.94 28 38.7V39.1C28 40.36 29.26 41.24 30.42 40.8C37.2 38.22 42 31.68 42 24C42 16.32 37.2 9.78005 30.42 7.20005C29.26 6.74005 28 7.64005 28 8.90005Z" fill="#4AA83B"/>
</svg>
