<svg width="48" height="48" viewBox="0 0 48 48" fill="none" xmlns="http://www.w3.org/2000/svg">
<circle cx="24" cy="24" r="23.5" stroke="#333333" stroke-opacity="0.2"/>
<path fill-rule="evenodd" clip-rule="evenodd" d="M29.7711 30.3251V30.3235L29.7861 30.2877L32.2853 17.6876V17.6476C32.2853 17.3335 32.1686 17.0593 31.917 16.8951C31.6961 16.751 31.442 16.741 31.2636 16.7543C31.0976 16.7693 30.9338 16.8029 30.7753 16.8543C30.7077 16.8761 30.641 16.9006 30.5753 16.9276L30.5645 16.9318L16.6311 22.3977L16.627 22.3993C16.5846 22.4138 16.5431 22.4308 16.5028 22.4502C16.4037 22.4947 16.3086 22.5476 16.2186 22.6085C16.0395 22.7318 15.6986 23.0218 15.7561 23.4818C15.8036 23.8635 16.0661 24.1051 16.2436 24.231C16.3484 24.3044 16.461 24.3659 16.5795 24.4143L16.6061 24.426L16.6145 24.4285L16.6203 24.431L19.0586 25.2518C19.0503 25.4043 19.0653 25.5601 19.1061 25.7143L20.327 30.3468C20.3937 30.5993 20.5378 30.8246 20.7391 30.991C20.9404 31.1574 21.1887 31.2566 21.4493 31.2746C21.7098 31.2927 21.9695 31.2286 22.1918 31.0915C22.4141 30.9544 22.5878 30.7511 22.6886 30.5101L24.5953 28.4718L27.8695 30.9818L27.9161 31.0018C28.2136 31.1318 28.4911 31.1726 28.7453 31.1385C28.9995 31.1035 29.2011 30.9968 29.3528 30.876C29.5282 30.7338 29.668 30.5526 29.7611 30.3468L29.7678 30.3326L29.7703 30.3276L29.7711 30.3251ZM20.3145 25.396C20.3009 25.3446 20.3042 25.2902 20.3236 25.2408C20.3431 25.1913 20.3778 25.1494 20.4228 25.121L28.6903 19.871C28.6903 19.871 29.177 19.5751 29.1595 19.871C29.1595 19.871 29.2461 19.9226 28.9853 20.1651C28.7386 20.396 23.0928 25.8468 22.5211 26.3985C22.4893 26.4293 22.4671 26.4687 22.457 26.5118L21.5353 30.0285L20.3145 25.3951V25.396Z" fill="#333333"/>
</svg>
