<svg width="48" height="48" viewBox="0 0 48 48" fill="none" xmlns="http://www.w3.org/2000/svg">
<path d="M24 2L6 10V22C6 33.1 13.68 43.48 24 46C34.32 43.48 42 33.1 42 22V10L24 2ZM24 10C25.5913 10 27.1174 10.6321 28.2426 11.7574C29.3679 12.8826 30 14.4087 30 16C30 17.5913 29.3679 19.1174 28.2426 20.2426C27.1174 21.3679 25.5913 22 24 22C22.4087 22 20.8826 21.3679 19.7574 20.2426C18.6321 19.1174 18 17.5913 18 16C18 14.4087 18.6321 12.8826 19.7574 11.7574C20.8826 10.6321 22.4087 10 24 10ZM34.26 34C31.8368 37.7093 28.2157 40.4763 24 41.84C19.7843 40.4763 16.1632 37.7093 13.74 34C13.06 33 12.48 32 12 30.94C12 27.64 17.42 24.94 24 24.94C30.58 24.94 36 27.58 36 30.94C35.52 32 34.94 33 34.26 34Z" fill="#4AA83B"/>
</svg>
