<svg width="48" height="48" viewBox="0 0 48 48" fill="none" xmlns="http://www.w3.org/2000/svg">
<path d="M12.024 36H42V8C42 5.794 40.206 4 38 4H12C9.588 4 6 5.598 6 10V38C6 42.402 9.588 44 12 44H42V40H12.024C11.1 39.976 10 39.612 10 38C10 37.798 10.018 37.618 10.048 37.454C10.272 36.302 11.216 36.02 12.024 36ZM17.296 15.284C18.1285 14.4621 19.2512 14.0013 20.421 14.0013C21.5908 14.0013 22.7135 14.4621 23.546 15.284L23.994 15.722L24.44 15.284C25.2728 14.462 26.3959 14.0011 27.566 14.0011C28.7361 14.0011 29.8592 14.462 30.692 15.284C31.1051 15.6813 31.4337 16.1579 31.6582 16.6853C31.8827 17.2126 31.9984 17.7799 31.9984 18.353C31.9984 18.9261 31.8827 19.4934 31.6582 20.0207C31.4337 20.5481 31.1051 21.0247 30.692 21.422L23.996 28L17.298 21.422C16.8845 21.025 16.5555 20.5485 16.3307 20.0212C16.1059 19.4939 15.9899 18.9267 15.9897 18.3534C15.9895 17.7802 16.1051 17.2128 16.3296 16.6854C16.5541 16.1579 16.8828 15.6813 17.296 15.284Z" fill="#4AA83B"/>
</svg>
