<svg width="48" height="48" viewBox="0 0 48 48" fill="none" xmlns="http://www.w3.org/2000/svg">
<circle cx="24" cy="24" r="23.5" stroke="#333333" stroke-opacity="0.2"/>
<path d="M31.4558 20.921C31.4474 20.2899 31.3293 19.665 31.1067 19.0744C30.9136 18.5762 30.6188 18.1237 30.241 17.7459C29.8632 17.3681 29.4107 17.0733 28.9125 16.8802C28.3294 16.6613 27.7135 16.543 27.0908 16.5302C26.2892 16.4944 26.035 16.4844 24 16.4844C21.965 16.4844 21.7042 16.4844 20.9083 16.5302C20.286 16.5431 19.6703 16.6614 19.0875 16.8802C18.5892 17.0731 18.1367 17.3679 17.7589 17.7457C17.381 18.1236 17.0862 18.5761 16.8933 19.0744C16.674 19.657 16.5559 20.2728 16.5442 20.8952C16.5083 21.6977 16.4975 21.9519 16.4975 23.9869C16.4975 26.0219 16.4975 26.2819 16.5442 27.0785C16.5567 27.7019 16.6742 28.3169 16.8933 28.901C17.0866 29.3992 17.3816 29.8515 17.7595 30.2292C18.1375 30.6068 18.5901 30.9015 19.0883 31.0944C19.6695 31.322 20.2853 31.4489 20.9092 31.4694C21.7117 31.5052 21.9658 31.516 24.0008 31.516C26.0358 31.516 26.2967 31.516 27.0925 31.4694C27.7151 31.4571 28.3311 31.339 28.9142 31.1202C29.4122 30.9269 29.8646 30.632 30.2424 30.2542C30.6201 29.8765 30.9151 29.4241 31.1083 28.926C31.3275 28.3427 31.445 27.7277 31.4575 27.1035C31.4933 26.3019 31.5042 26.0477 31.5042 24.0119C31.5025 21.9769 31.5025 21.7185 31.4558 20.921ZM23.995 27.8352C21.8667 27.8352 20.1425 26.111 20.1425 23.9827C20.1425 21.8544 21.8667 20.1302 23.995 20.1302C25.0167 20.1302 25.9966 20.5361 26.7191 21.2586C27.4416 21.9811 27.8475 22.961 27.8475 23.9827C27.8475 25.0045 27.4416 25.9844 26.7191 26.7068C25.9966 27.4293 25.0167 27.8352 23.995 27.8352ZM28.0008 20.886C27.8828 20.8862 27.766 20.863 27.6569 20.8179C27.5479 20.7728 27.4488 20.7066 27.3654 20.6232C27.2819 20.5397 27.2158 20.4407 27.1707 20.3316C27.1256 20.2226 27.1024 20.1057 27.1025 19.9877C27.1025 19.8698 27.1257 19.753 27.1708 19.6441C27.216 19.5352 27.2821 19.4362 27.3655 19.3528C27.4489 19.2694 27.5479 19.2033 27.6568 19.1581C27.7657 19.113 27.8825 19.0898 28.0004 19.0898C28.1183 19.0898 28.2351 19.113 28.344 19.1581C28.453 19.2033 28.552 19.2694 28.6353 19.3528C28.7187 19.4362 28.7849 19.5352 28.83 19.6441C28.8751 19.753 28.8983 19.8698 28.8983 19.9877C28.8983 20.4844 28.4967 20.886 28.0008 20.886Z" fill="#333333"/>
<path d="M23.995 26.485C25.3771 26.485 26.4975 25.3646 26.4975 23.9825C26.4975 22.6004 25.3771 21.48 23.995 21.48C22.6129 21.48 21.4925 22.6004 21.4925 23.9825C21.4925 25.3646 22.6129 26.485 23.995 26.485Z" fill="#333333"/>
</svg>
