<svg width="48" height="48" viewBox="0 0 48 48" fill="none" xmlns="http://www.w3.org/2000/svg">
<g clip-path="url(#clip0_188_720)">
<path d="M24 4C24.4899 4.00006 24.9627 4.17991 25.3288 4.50543C25.6948 4.83095 25.9287 5.2795 25.986 5.766L26 6V6.11C29.9648 6.5545 33.6697 8.30287 36.5333 11.0807C39.3969 13.8586 41.2572 17.5086 41.822 21.458L41.89 22H42C42.5098 22.0006 43.0001 22.1958 43.3707 22.5457C43.7414 22.8956 43.9645 23.3739 43.9944 23.8828C44.0242 24.3917 43.8587 24.8928 43.5315 25.2837C43.2043 25.6746 42.7402 25.9258 42.234 25.986L42 26H41.89C41.4455 29.9647 39.6971 33.6697 36.9193 36.5333C34.1415 39.3969 30.4914 41.2571 26.542 41.822L26 41.89V42C25.9994 42.5098 25.8043 43.0001 25.4543 43.3707C25.1044 43.7414 24.6261 43.9645 24.1172 43.9943C23.6083 44.0242 23.1073 43.8587 22.7163 43.5315C22.3254 43.2043 22.0742 42.7402 22.014 42.234L22 42V41.89C18.0353 41.4455 14.3303 39.6971 11.4667 36.9193C8.60308 34.1414 6.74286 30.4914 6.17801 26.542L6.11001 26H6.00001C5.49025 25.9994 4.99995 25.8042 4.62928 25.4543C4.2586 25.1044 4.03554 24.6261 4.00567 24.1172C3.97579 23.6083 4.14136 23.1072 4.46854 22.7163C4.79572 22.3254 5.25982 22.0742 5.76601 22.014L6.00001 22H6.11001C6.55451 18.0353 8.30288 14.3303 11.0807 11.4667C13.8586 8.60307 17.5086 6.74285 21.458 6.178L22 6.11V6C22 5.46957 22.2107 4.96086 22.5858 4.58579C22.9609 4.21071 23.4696 4 24 4ZM24 14C21.3478 14 18.8043 15.0536 16.9289 16.9289C15.0536 18.8043 14 21.3478 14 24C14 26.6522 15.0536 29.1957 16.9289 31.0711C18.8043 32.9464 21.3478 34 24 34C26.6522 34 29.1957 32.9464 31.0711 31.0711C32.9464 29.1957 34 26.6522 34 24C34 21.3478 32.9464 18.8043 31.0711 16.9289C29.1957 15.0536 26.6522 14 24 14ZM24 18C25.5913 18 27.1174 18.6321 28.2427 19.7574C29.3679 20.8826 30 22.4087 30 24C30 25.5913 29.3679 27.1174 28.2427 28.2426C27.1174 29.3679 25.5913 30 24 30C22.4087 30 20.8826 29.3679 19.7574 28.2426C18.6322 27.1174 18 25.5913 18 24C18 22.4087 18.6322 20.8826 19.7574 19.7574C20.8826 18.6321 22.4087 18 24 18Z" fill="#4AA83B"/>
</g>
<defs>
<clipPath id="clip0_188_720">
<rect width="48" height="48" fill="white"/>
</clipPath>
</defs>
</svg>
