<svg width="48" height="48" viewBox="0 0 48 48" fill="none" xmlns="http://www.w3.org/2000/svg">
<path d="M16 24H32V20H16V24ZM16 16H32V12H16V16ZM39.9 40.95L31.8 30.4C31.2333 29.6333 30.5333 29.042 29.7 28.626C28.8667 28.21 27.9667 28.0013 27 28H8V8C8 6.9 8.392 5.958 9.176 5.174C9.96 4.39 10.9013 3.99867 12 4H36C37.1 4 38.042 4.392 38.826 5.176C39.61 5.96 40.0013 6.90134 40 8V40C40 40.1667 39.9913 40.3253 39.974 40.476C39.9567 40.6267 39.932 40.7847 39.9 40.95ZM12 44C10.9 44 9.95867 43.608 9.176 42.824C8.39333 42.04 8.00133 41.0987 8 40V32H27C27.3333 32 27.642 32.0753 27.926 32.226C28.21 32.3767 28.4513 32.5847 28.65 32.85L37.05 43.85C36.8833 43.9167 36.7087 43.9587 36.526 43.976C36.3433 43.9933 36.168 44.0013 36 44H12Z" fill="#4AA83B"/>
</svg>
