<svg width="48" height="48" viewBox="0 0 48 48" fill="none" xmlns="http://www.w3.org/2000/svg">
<g clip-path="url(#clip0_188_718)">
<path d="M27 15C27 17.3869 26.0518 19.6761 24.364 21.364C22.6761 23.0518 20.3869 24 18 24C15.6131 24 13.3239 23.0518 11.636 21.364C9.94821 19.6761 9 17.3869 9 15C9 12.6131 9.94821 10.3239 11.636 8.63604C13.3239 6.94821 15.6131 6 18 6C20.3869 6 22.6761 6.94821 24.364 8.63604C26.0518 10.3239 27 12.6131 27 15ZM0 39C0 42 3 42 3 42H33C33 42 36 42 36 39C36 36 33 27 18 27C3 27 0 36 0 39ZM40.5 14.73C44.661 10.455 55.065 17.94 40.5 27.561C25.938 17.94 36.339 10.452 40.5 14.73Z" fill="#4AA83B"/>
</g>
<defs>
<clipPath id="clip0_188_718">
<rect width="48" height="48" fill="white"/>
</clipPath>
</defs>
</svg>
