<svg width="40" height="40" viewBox="0 0 40 40" fill="none" xmlns="http://www.w3.org/2000/svg">
<rect width="40" height="40" rx="8" fill="#BC7AFF"/>
<path fill-rule="evenodd" clip-rule="evenodd" d="M21.3333 13.3333C21.3334 13.1867 21.2852 13.0442 21.1961 12.9278C21.1071 12.8114 20.9821 12.7276 20.8407 12.6894C20.6992 12.6511 20.5491 12.6605 20.4135 12.7162C20.2779 12.7719 20.1644 12.8706 20.0907 12.9973L15.424 20.9973C15.3649 21.0986 15.3335 21.2137 15.3331 21.331C15.3327 21.4483 15.3633 21.5636 15.4217 21.6653C15.4802 21.7671 15.5644 21.8516 15.6659 21.9103C15.7675 21.9691 15.8827 22 16 21.9999H18.6667V26.6666C18.6666 26.8132 18.7148 26.9557 18.8039 27.072C18.8929 27.1884 19.0178 27.2722 19.1593 27.3105C19.3008 27.3487 19.4509 27.3393 19.5865 27.2837C19.7221 27.228 19.8355 27.1292 19.9093 27.0026L24.576 19.0026C24.6351 18.9013 24.6665 18.7862 24.6669 18.6689C24.6673 18.5516 24.6367 18.4362 24.5783 18.3345C24.5198 18.2328 24.4356 18.1483 24.3341 18.0896C24.2325 18.0308 24.1173 17.9999 24 17.9999H21.3333V13.3333Z" fill="white"/>
</svg>
