<svg width="96" height="96" viewBox="0 0 96 96" fill="none" xmlns="http://www.w3.org/2000/svg">
<path fill-rule="evenodd" clip-rule="evenodd" d="M48 27C43.6129 27 40.0714 23.4825 40.0714 19.125C40.0714 14.7675 43.6129 11.25 48 11.25C52.3871 11.25 55.9286 14.7675 55.9286 19.125C55.9286 23.4825 52.3871 27 48 27ZM85 58.5C85 64.3275 80.2957 69 74.4286 69H69.1429C63.2757 69 58.5714 64.3275 58.5714 58.5L69.1429 37.5H63.8571C60.95 37.5 58.5714 35.1375 58.5714 32.25H53.2857V74.25C55.5057 74.25 58.5714 76.6125 58.5714 79.5H63.8571C66.0771 79.5 69.1429 81.8625 69.1429 84.75H26.8571C26.8571 81.8625 29.9229 79.5 32.1429 79.5H37.4286C37.4286 76.6125 40.4943 74.25 42.7143 74.25H42.8729L42.7143 32.25H37.4286C37.4286 35.1375 35.05 37.5 32.1429 37.5H26.8571L37.4286 58.5C37.4286 64.3275 32.7243 69 26.8571 69H21.5714C15.7043 69 11 64.3275 11 58.5L21.5714 37.5H16.2857V32.25H32.1429C32.1429 29.3625 34.5214 27 37.4286 27H58.5714C61.4786 27 63.8571 29.3625 63.8571 32.25H79.7143V37.5H74.4286L85 58.5ZM24.2143 42.75L16.2857 58.5H32.1429L24.2143 42.75ZM79.7143 58.5L71.7857 42.75L63.8571 58.5H79.7143Z" fill="#333333" fill-opacity="0.2"/>
</svg>
