<svg width="96" height="96" viewBox="0 0 96 96" fill="none" xmlns="http://www.w3.org/2000/svg">
<path d="M63 76.52C59.68 76.52 57 73.16 57 69C57 64.88 59.68 61.52 63 61.52C66.32 61.52 69 64.88 69 69C69 73.16 66.32 76.52 63 76.52ZM48 45C43.04 45 39 41.64 39 37.52C39 33.36 43.04 30 48 30C52.96 30 57 33.36 57 37.52C57 41.64 52.96 45 48 45ZM33 76.52C29.68 76.52 27 73.16 27 69C27 64.88 29.68 61.52 33 61.52C36.32 61.52 39 64.88 39 69C39 73.16 36.32 76.52 33 76.52ZM48 33C49.64 33 51 34.36 51 36C51 37.64 49.64 39 48 39C46.36 39 45 37.64 45 36C45 34.36 46.36 33 48 33ZM75 48C73.72 48 72.48 48.28 71.36 48.8C69.44 46.36 66.84 44.28 63.72 42.68C66 39.48 67.36 35.6 67.36 31.4V31.16C71.72 30.24 75 26.36 75 21.68C75 16.36 70.64 12 65.32 12C62.56 12 60 13.16 58.32 15C55.2345 13.0407 51.655 12.0003 48 12.0003C44.345 12.0003 40.7655 13.0407 37.68 15C36 13.16 33.44 12 30.68 12C25.36 12 21 16.36 21 21.68C21 26.32 24.28 30.2 28.6 31.16V31.4C28.6 35.6 30 39.52 32.24 42.68C29.16 44.28 26.56 46.36 24.64 48.8C23.2731 48.1842 21.7734 47.9213 20.2786 48.0353C18.7837 48.1493 17.3413 48.6366 16.0835 49.4526C14.8258 50.2685 13.7929 51.387 13.0795 52.7056C12.366 54.0242 11.9949 55.5008 12 57C12 62 16 66 21 66H21.24C21.08 66.96 21 68 21 69C21 77.28 26.36 84 33 84C37.04 84 40.6 81.48 42.8 77.64C44.48 77.88 46.2 78 48 78C49.8 78 51.52 77.88 53.2 77.64C55.4 81.48 58.96 84 63 84C69.64 84 75 77.28 75 69C75 68 74.92 66.96 74.76 66H75C80 66 84 62 84 57C84 52 80 48 75 48Z" fill="white" fill-opacity="0.2"/>
</svg>
