<svg width="96" height="96" viewBox="0 0 96 96" fill="none" xmlns="http://www.w3.org/2000/svg">
<path d="M48 44.72C61.2 32.72 68 26.56 68 18.76C68 12.76 63 8 57 8C53.56 8 50.28 9.44 48 12C45.72 9.44 42.44 8 38.76 8C32.76 8 28 13 28 19C28 26.56 34.8 32.72 48 44.72ZM44.72 48C32.72 34.8 26.56 28 18.76 28C12.76 28 8 33 8 39C8 42.44 9.44 45.72 12 48C9.44 50.28 8 53.56 8 57.24C8 63.24 13 68 19 68C26.56 68 32.72 61.2 44.72 48ZM51.32 48C63.28 61.2 69.44 68 77.24 68C83.24 68 88 63 88 57C88 53.56 86.56 50.28 84 48C86.56 45.72 88 42.44 88 38.76C88 32.76 83 28 77 28C69.44 28 63.28 34.8 51.32 48ZM48 51.28C34.8 63.28 28 69.44 28 77.24C28 83.24 33 88 39 88C42.44 88 45.72 86.56 48 84C50.28 86.56 53.56 88 57.24 88C63.24 88 68 83 68 77C68 69.44 61.2 63.28 48 51.28Z" fill="white" fill-opacity="0.2"/>
</svg>
