<svg width="48" height="48" viewBox="0 0 48 48" fill="none" xmlns="http://www.w3.org/2000/svg">
<circle cx="24" cy="24" r="23.5" stroke="#333333" stroke-opacity="0.2"/>
<path fill-rule="evenodd" clip-rule="evenodd" d="M32.9336 19.1562C33.0727 18.7156 32.9336 18.3953 32.3184 18.3953H30.2727C29.7566 18.3953 29.5184 18.6758 29.3793 18.9758C29.3793 18.9758 28.327 21.5383 26.8574 23.1996C26.3809 23.6801 26.1625 23.8402 25.9043 23.8402C25.7652 23.8402 25.5863 23.6801 25.5863 23.2398V19.1355C25.5863 18.6152 25.4277 18.375 24.9906 18.375H21.7734C21.4555 18.375 21.257 18.6152 21.257 18.8555C21.257 19.3559 21.9918 19.4762 22.0711 20.8773V23.9219C22.0711 24.5824 21.9539 24.7031 21.6938 24.7031C20.9988 24.7031 19.3109 22.1207 18.2984 19.1781C18.1016 18.5953 17.9016 18.375 17.3852 18.375H15.3199C14.7242 18.375 14.625 18.6551 14.625 18.9555C14.625 19.4961 15.3199 22.2184 17.8617 25.8215C19.5496 28.2824 21.9523 29.6051 24.1168 29.6051C25.4277 29.6051 25.5863 29.3047 25.5863 28.8043V26.9426C25.5863 26.3422 25.7055 26.2422 26.1227 26.2422C26.4203 26.2422 26.9566 26.402 28.168 27.5832C29.5578 28.9844 29.7961 29.625 30.5707 29.625H32.616C33.2117 29.625 33.4898 29.3246 33.3309 28.7441C33.1523 28.1637 32.477 27.323 31.6031 26.3223C31.1266 25.7621 30.4117 25.1414 30.1934 24.841C29.8957 24.4406 29.975 24.2805 30.1934 23.9203C30.1734 23.9203 32.6758 20.357 32.9336 19.1547" fill="#333333"/>
</svg>
