<svg width="48" height="48" viewBox="0 0 48 48" fill="none" xmlns="http://www.w3.org/2000/svg">
<path d="M42 10H24.828L20.828 6H6C5.46957 6 4.96086 6.21071 4.58579 6.58579C4.21071 6.96086 4 7.46957 4 8V40C4 40.5304 4.21071 41.0391 4.58579 41.4142C4.96086 41.7893 5.46957 42 6 42H42C42.5304 42 43.0391 41.7893 43.4142 41.4142C43.7893 41.0391 44 40.5304 44 40V12C44 11.4696 43.7893 10.9609 43.4142 10.5858C43.0391 10.2107 42.5304 10 42 10ZM30 25.334C30.1097 25.407 30.1997 25.506 30.262 25.6222C30.3242 25.7384 30.3568 25.8682 30.3568 26C30.3568 26.1318 30.3242 26.2616 30.262 26.3778C30.1997 26.494 30.1097 26.593 30 26.666L20.244 33.17C20.1235 33.2504 19.9834 33.2966 19.8387 33.3036C19.694 33.3106 19.5501 33.2782 19.4224 33.2098C19.2947 33.1414 19.1879 33.0397 19.1135 32.9153C19.0392 32.791 18.9999 32.6489 19 32.504V19.494C18.9999 19.3491 19.0392 19.207 19.1135 19.0826C19.1879 18.9583 19.2947 18.8566 19.4224 18.7882C19.5501 18.7198 19.694 18.6874 19.8387 18.6944C19.9834 18.7014 20.1235 18.7476 20.244 18.828L30 25.334Z" fill="#4AA83B"/>
</svg>
