<svg width="48" height="48" viewBox="0 0 48 48" fill="none" xmlns="http://www.w3.org/2000/svg">
<g clip-path="url(#clip0_184_706)">
<path d="M44 20V34C44 35.5913 43.3679 37.1174 42.2426 38.2426C41.1174 39.3679 39.5913 40 38 40H10C8.4087 40 6.88258 39.3679 5.75736 38.2426C4.63214 37.1174 4 35.5913 4 34V20H44ZM36 28H30C29.4696 28 28.9609 28.2107 28.5858 28.5858C28.2107 28.9609 28 29.4696 28 30C28 30.5304 28.2107 31.0391 28.5858 31.4142C28.9609 31.7893 29.4696 32 30 32H36C36.5304 32 37.0391 31.7893 37.4142 31.4142C37.7893 31.0391 38 30.5304 38 30C38 29.4696 37.7893 28.9609 37.4142 28.5858C37.0391 28.2107 36.5304 28 36 28ZM38 8C39.5913 8 41.1174 8.63214 42.2426 9.75736C43.3679 10.8826 44 12.4087 44 14V16H4V14C4 12.4087 4.63214 10.8826 5.75736 9.75736C6.88258 8.63214 8.4087 8 10 8H38Z" fill="#4AA83B"/>
</g>
<defs>
<clipPath id="clip0_184_706">
<rect width="48" height="48" fill="white"/>
</clipPath>
</defs>
</svg>
