<svg width="48" height="48" viewBox="0 0 48 48" fill="none" xmlns="http://www.w3.org/2000/svg">
<path d="M24 29.9L29.55 34.1C29.95 34.3667 30.35 34.3753 30.75 34.126C31.15 33.8767 31.2667 33.518 31.1 33.05L29 26.1L34.45 22.2C34.85 21.9 34.9667 21.5247 34.8 21.074C34.6333 20.6233 34.3167 20.3987 33.85 20.4H27.2L24.95 13.1C24.7833 12.6333 24.4667 12.4 24 12.4C23.5333 12.4 23.2167 12.6333 23.05 13.1L20.8 20.4H14.15C13.6833 20.4 13.3667 20.6253 13.2 21.076C13.0333 21.5267 13.15 21.9013 13.55 22.2L19 26.1L16.9 33.05C16.7333 33.5167 16.85 33.8753 17.25 34.126C17.65 34.3767 18.05 34.368 18.45 34.1L24 29.9ZM24 44C21.2333 44 18.6333 43.4747 16.2 42.424C13.7667 41.3733 11.65 39.9487 9.85 38.15C8.05 36.35 6.62533 34.2333 5.576 31.8C4.52667 29.3667 4.00133 26.7667 4 24C4 21.2333 4.52533 18.6333 5.576 16.2C6.62667 13.7667 8.05133 11.65 9.85 9.85C11.65 8.05 13.7667 6.62533 16.2 5.576C18.6333 4.52667 21.2333 4.00133 24 4C26.7667 4 29.3667 4.52533 31.8 5.576C34.2333 6.62667 36.35 8.05133 38.15 9.85C39.95 11.65 41.3753 13.7667 42.426 16.2C43.4767 18.6333 44.0013 21.2333 44 24C44 26.7667 43.4747 29.3667 42.424 31.8C41.3733 34.2333 39.9487 36.35 38.15 38.15C36.35 39.95 34.2333 41.3753 31.8 42.426C29.3667 43.4767 26.7667 44.0013 24 44Z" fill="#4AA83B"/>
</svg>
