<svg width="48" height="48" viewBox="0 0 48 48" fill="none" xmlns="http://www.w3.org/2000/svg">
<path d="M38 34H22V32C22 29.34 27.34 28 30 28C32.66 28 38 29.34 38 32M30 18C31.0609 18 32.0783 18.4214 32.8284 19.1716C33.5786 19.9217 34 20.9391 34 22C34 23.0609 33.5786 24.0783 32.8284 24.8284C32.0783 25.5786 31.0609 26 30 26C28.9391 26 27.9217 25.5786 27.1716 24.8284C26.4214 24.0783 26 23.0609 26 22C26 20.9391 26.4214 19.9217 27.1716 19.1716C27.9217 18.4214 28.9391 18 30 18ZM40 12H24L20 8H8C5.78 8 4 9.78 4 12V36C4 37.0609 4.42143 38.0783 5.17157 38.8284C5.92172 39.5786 6.93913 40 8 40H40C41.0609 40 42.0783 39.5786 42.8284 38.8284C43.5786 38.0783 44 37.0609 44 36V16C44 14.9391 43.5786 13.9217 42.8284 13.1716C42.0783 12.4214 41.0609 12 40 12Z" fill="#4AA83B"/>
</svg>
