<svg width="48" height="48" viewBox="0 0 48 48" fill="none" xmlns="http://www.w3.org/2000/svg">
<path d="M24 30C22.9 30 21.958 29.608 21.174 28.824C20.39 28.04 19.9987 27.0987 20 26C20 24.9 20.392 23.958 21.176 23.174C21.96 22.39 22.9013 21.9987 24 22C25.1 22 26.042 22.392 26.826 23.176C27.61 23.96 28.0013 24.9013 28 26C28 27.1 27.608 28.042 26.824 28.826C26.04 29.61 25.0987 30.0013 24 30ZM12 4H28L40 16V40C40 41.1 39.608 42.042 38.824 42.826C38.04 43.61 37.0987 44.0013 36 44H12C10.9 44 9.958 43.608 9.174 42.824C8.39 42.04 7.99867 41.0987 8 40V8C8 6.9 8.392 5.958 9.176 5.174C9.96 4.39 10.9013 3.99867 12 4ZM24 34C24.7667 34 25.4833 33.908 26.15 33.724C26.8167 33.54 27.4333 33.2653 28 32.9L35.15 40H36V35.2L30.9 30C31.2667 29.4333 31.542 28.8167 31.726 28.15C31.91 27.4833 32.0013 26.7667 32 26C32 23.8 31.2167 21.9167 29.65 20.35C28.0833 18.7833 26.2 18 24 18C21.8 18 19.9167 18.7833 18.35 20.35C16.7833 21.9167 16 23.8 16 26C16 28.2 16.7833 30.0833 18.35 31.65C19.9167 33.2167 21.8 34 24 34Z" fill="#4AA83B"/>
</svg>
