<svg width="48" height="48" viewBox="0 0 48 48" fill="none" xmlns="http://www.w3.org/2000/svg">
<path d="M44 20H24V34.764C24 37.582 25.264 40.232 27.41 42H6C5.46957 42 4.96086 41.7893 4.58579 41.4142C4.21071 41.0391 4 40.5304 4 40V8C4 7.46957 4.21071 6.96086 4.58579 6.58579C4.96086 6.21071 5.46957 6 6 6H20.828L24.828 10H42C42.5304 10 43.0391 10.2107 43.4142 10.5858C43.7893 10.9609 44 11.4696 44 12V20ZM28 24H44V34.764C44 36.558 43.108 38.232 41.624 39.224L36 42.998L30.374 39.228C29.6424 38.7364 29.043 38.0721 28.629 37.2939C28.215 36.5157 27.9989 35.6475 28 34.766V24Z" fill="#4AA83B"/>
</svg>
