<svg width="400" height="424" viewBox="0 0 400 424" fill="none" xmlns="http://www.w3.org/2000/svg">
<g filter="url(#filter0_d_225_11)">
<mask id="path-1-inside-1_225_11" fill="white" stroke="red">
<path fill-rule="evenodd" clip-rule="evenodd" d="M179.739 20C133.411 20 95.1669 54.5304 89.3145 99.2483C88.9029 102.393 86.8242 105.081 83.9309 106.379C62.752 115.886 48 137.16 48 161.876C48 195.453 75.2232 222.676 108.8 222.676C108.8 222.676 108.8 222.676 108.8 222.677C108.8 222.677 108.8 222.677 108.8 222.677H270.938C270.938 222.677 270.938 222.677 270.938 222.677C270.938 222.676 270.938 222.676 270.938 222.676C315.707 222.676 352 186.383 352 141.6C352 96.8311 315.707 60.5381 270.938 60.5381C267.808 60.5381 264.718 60.7155 261.68 61.0607C258.488 61.4234 255.323 60.053 253.428 57.4591C236.84 34.7522 210.01 20 179.739 20Z"/>
</mask>
<path fill-rule="evenodd" clip-rule="evenodd" transform="clale(0.1)" d="M179.739 20C133.411 20 95.1669 54.5304 89.3145 99.2483C88.9029 102.393 86.8242 105.081 83.9309 106.379C62.752 115.886 48 137.16 48 161.876C48 195.453 75.2232 222.676 108.8 222.676C108.8 222.676 108.8 222.676 108.8 222.677C108.8 222.677 108.8 222.677 108.8 222.677H270.938C270.938 222.677 270.938 222.677 270.938 222.677C270.938 222.676 270.938 222.676 270.938 222.676C315.707 222.676 352 186.383 352 141.6C352 96.8311 315.707 60.5381 270.938 60.5381C267.808 60.5381 264.718 60.7155 261.68 61.0607C258.488 61.4234 255.323 60.053 253.428 57.4591C236.84 34.7522 210.01 20 179.739 20Z" fill="#BC7AFF"/>
<path d="M261.68 61.0607L262.379 67.2072L261.68 61.0607ZM253.428 57.4591L248.433 61.1083L253.428 57.4591ZM108.8 222.676L108.8 216.49L108.8 222.676ZM83.9309 106.379L81.3977 100.736L83.9309 106.379ZM95.4482 100.051C100.903 58.3723 136.558 26.186 179.739 26.186V13.814C130.264 13.814 89.4309 50.6884 83.1808 98.4456L95.4482 100.051ZM54.186 161.876C54.186 139.684 67.4262 120.568 86.464 112.023L81.3977 100.736C58.0778 111.203 41.814 134.635 41.814 161.876H54.186ZM108.8 216.49C78.6397 216.49 54.186 192.036 54.186 161.876H41.814C41.814 198.869 71.8067 228.862 108.8 228.862L108.8 216.49ZM270.938 216.491H108.8V228.863H270.938V216.491ZM264.752 222.677H277.124H264.752ZM345.814 141.6C345.814 182.968 312.29 216.49 270.938 216.49V228.862C319.124 228.862 358.186 189.799 358.186 141.6H345.814ZM270.938 66.7241C312.291 66.7241 345.814 100.248 345.814 141.6H358.186C358.186 93.4146 319.123 54.352 270.938 54.352V66.7241ZM262.379 67.2072C265.185 66.8882 268.041 66.7241 270.938 66.7241V54.352C267.574 54.352 264.251 54.5427 260.982 54.9142L262.379 67.2072ZM179.739 26.186C207.952 26.186 232.959 39.9269 248.433 61.1083L258.423 53.8099C240.72 29.5776 212.069 13.814 179.739 13.814V26.186ZM260.982 54.9142C259.974 55.0287 258.992 54.5886 258.423 53.8099L248.433 61.1083C251.654 65.5173 257.003 67.818 262.379 67.2072L260.982 54.9142ZM277.124 222.677C277.124 226.093 274.355 228.862 270.938 228.862V216.49C267.522 216.49 264.752 219.26 264.752 222.677H277.124ZM102.614 222.677C102.614 226.344 105.639 228.863 108.8 228.863V216.491C111.96 216.491 114.986 219.01 114.986 222.677H102.614ZM108.8 228.862C105.43 228.862 102.614 226.14 102.614 222.677H114.986C114.986 219.213 112.169 216.49 108.8 216.49L108.8 228.862ZM270.938 228.863C274.354 228.863 277.124 226.093 277.124 222.677H264.752C264.752 219.26 267.522 216.491 270.938 216.491V228.863ZM83.1808 98.4456C83.0604 99.365 82.4221 100.276 81.3977 100.736L86.464 112.023C91.2264 109.885 94.7455 105.421 95.4482 100.051L83.1808 98.4456Z" fill="#333333" mask="url(#path-1-inside-1_225_11)"/>
</g>
<path d="M128.036 121.338V104.538H141.26V121.338H138.5V106.986H130.796V121.338H128.036ZM149.869 121.482C148.941 121.482 148.085 121.33 147.301 121.026C146.533 120.722 145.877 120.298 145.333 119.754C144.789 119.194 144.365 118.53 144.061 117.762C143.757 116.994 143.605 116.138 143.605 115.194C143.605 114.25 143.757 113.394 144.061 112.626C144.365 111.858 144.789 111.202 145.333 110.658C145.877 110.098 146.533 109.666 147.301 109.362C148.085 109.058 148.941 108.906 149.869 108.906C150.813 108.906 151.669 109.058 152.437 109.362C153.205 109.666 153.861 110.098 154.405 110.658C154.949 111.202 155.373 111.858 155.677 112.626C155.981 113.394 156.133 114.25 156.133 115.194C156.133 116.138 155.981 116.994 155.677 117.762C155.373 118.53 154.949 119.194 154.405 119.754C153.861 120.298 153.205 120.722 152.437 121.026C151.669 121.33 150.813 121.482 149.869 121.482ZM149.869 119.274C150.413 119.274 150.909 119.178 151.357 118.986C151.805 118.778 152.181 118.498 152.485 118.146C152.805 117.778 153.053 117.346 153.229 116.85C153.405 116.338 153.493 115.786 153.493 115.194C153.493 114.602 153.405 114.058 153.229 113.562C153.053 113.05 152.805 112.618 152.485 112.266C152.181 111.898 151.805 111.618 151.357 111.426C150.909 111.218 150.413 111.114 149.869 111.114C149.325 111.114 148.829 111.218 148.381 111.426C147.933 111.618 147.549 111.898 147.229 112.266C146.925 112.618 146.685 113.05 146.509 113.562C146.349 114.058 146.269 114.602 146.269 115.194C146.269 115.786 146.349 116.338 146.509 116.85C146.685 117.346 146.925 117.778 147.229 118.146C147.549 118.498 147.933 118.778 148.381 118.986C148.829 119.178 149.325 119.274 149.869 119.274ZM169.313 119.058H171.305V124.578H168.761V121.338H159.377V124.578H156.833V119.058H158.105C158.329 118.914 158.521 118.746 158.681 118.554C158.841 118.346 158.977 118.066 159.089 117.714C159.201 117.346 159.281 116.874 159.329 116.298C159.393 115.722 159.425 114.994 159.425 114.114V109.05H169.313V119.058ZM166.721 119.058V111.33H161.873V114.402C161.873 115.634 161.801 116.61 161.657 117.33C161.513 118.034 161.305 118.61 161.033 119.058H166.721ZM179.746 108.906C180.594 108.906 181.37 109.05 182.074 109.338C182.778 109.626 183.386 110.042 183.898 110.586C184.426 111.114 184.834 111.77 185.122 112.554C185.41 113.322 185.554 114.202 185.554 115.194C185.554 116.138 185.41 117.002 185.122 117.786C184.834 118.554 184.426 119.218 183.898 119.778C183.386 120.322 182.778 120.746 182.074 121.05C181.37 121.338 180.594 121.482 179.746 121.482C178.786 121.482 177.978 121.314 177.322 120.978C176.666 120.626 176.146 120.17 175.762 119.61V126.138H173.17V109.05H175.426L175.738 110.874C176.154 110.33 176.682 109.866 177.322 109.482C177.978 109.098 178.786 108.906 179.746 108.906ZM179.314 119.298C179.858 119.298 180.346 119.202 180.778 119.01C181.226 118.802 181.602 118.514 181.906 118.146C182.226 117.778 182.474 117.346 182.65 116.85C182.826 116.338 182.914 115.786 182.914 115.194C182.914 114.586 182.826 114.034 182.65 113.538C182.474 113.042 182.226 112.618 181.906 112.266C181.602 111.898 181.226 111.618 180.778 111.426C180.346 111.218 179.858 111.114 179.314 111.114C178.77 111.114 178.274 111.218 177.826 111.426C177.394 111.618 177.018 111.89 176.698 112.242C176.394 112.594 176.154 113.018 175.978 113.514C175.818 114.01 175.738 114.554 175.738 115.146C175.738 115.754 175.818 116.314 175.978 116.826C176.154 117.338 176.394 117.778 176.698 118.146C177.018 118.514 177.394 118.802 177.826 119.01C178.274 119.202 178.77 119.298 179.314 119.298ZM193.439 121.482C192.511 121.482 191.655 121.33 190.871 121.026C190.103 120.722 189.447 120.298 188.903 119.754C188.359 119.194 187.935 118.53 187.631 117.762C187.327 116.994 187.175 116.138 187.175 115.194C187.175 114.25 187.327 113.394 187.631 112.626C187.935 111.858 188.359 111.202 188.903 110.658C189.447 110.098 190.103 109.666 190.871 109.362C191.655 109.058 192.511 108.906 193.439 108.906C194.383 108.906 195.239 109.058 196.007 109.362C196.775 109.666 197.431 110.098 197.975 110.658C198.519 111.202 198.943 111.858 199.247 112.626C199.551 113.394 199.703 114.25 199.703 115.194C199.703 116.138 199.551 116.994 199.247 117.762C198.943 118.53 198.519 119.194 197.975 119.754C197.431 120.298 196.775 120.722 196.007 121.026C195.239 121.33 194.383 121.482 193.439 121.482ZM193.439 119.274C193.983 119.274 194.479 119.178 194.927 118.986C195.375 118.778 195.751 118.498 196.055 118.146C196.375 117.778 196.623 117.346 196.799 116.85C196.975 116.338 197.063 115.786 197.063 115.194C197.063 114.602 196.975 114.058 196.799 113.562C196.623 113.05 196.375 112.618 196.055 112.266C195.751 111.898 195.375 111.618 194.927 111.426C194.479 111.218 193.983 111.114 193.439 111.114C192.895 111.114 192.399 111.218 191.951 111.426C191.503 111.618 191.119 111.898 190.799 112.266C190.495 112.618 190.255 113.05 190.079 113.562C189.919 114.058 189.839 114.602 189.839 115.194C189.839 115.786 189.919 116.338 190.079 116.85C190.255 117.346 190.495 117.778 190.799 118.146C191.119 118.498 191.503 118.778 191.951 118.986C192.399 119.178 192.895 119.274 193.439 119.274ZM208.244 109.962C209.044 109.962 209.78 110.09 210.452 110.346C211.14 110.602 211.724 110.978 212.204 111.474C212.7 111.954 213.084 112.546 213.356 113.25C213.644 113.938 213.788 114.722 213.788 115.602C213.788 116.45 213.644 117.234 213.356 117.954C213.068 118.674 212.652 119.298 212.108 119.826C211.58 120.338 210.932 120.746 210.164 121.05C209.396 121.338 208.532 121.482 207.572 121.482C205.684 121.482 204.188 120.906 203.084 119.754C201.996 118.602 201.452 116.818 201.452 114.402C201.452 112.818 201.564 111.466 201.788 110.346C202.012 109.226 202.396 108.298 202.94 107.562C203.484 106.81 204.204 106.226 205.1 105.81C206.012 105.378 207.14 105.082 208.484 104.922L212.756 104.394V106.722L209.084 107.178C208.14 107.29 207.356 107.45 206.732 107.658C206.108 107.85 205.596 108.122 205.196 108.474C204.796 108.81 204.492 109.25 204.284 109.794C204.076 110.338 203.924 111.018 203.828 111.834C204.26 111.274 204.844 110.826 205.58 110.49C206.332 110.138 207.22 109.962 208.244 109.962ZM207.62 119.394C208.148 119.394 208.628 119.306 209.06 119.13C209.492 118.938 209.86 118.682 210.164 118.362C210.484 118.042 210.724 117.658 210.884 117.21C211.06 116.746 211.148 116.25 211.148 115.722C211.148 115.194 211.06 114.706 210.884 114.258C210.724 113.81 210.492 113.426 210.188 113.106C209.884 112.786 209.516 112.538 209.084 112.362C208.652 112.17 208.18 112.074 207.668 112.074C207.124 112.074 206.628 112.162 206.18 112.338C205.748 112.514 205.372 112.762 205.052 113.082C204.748 113.386 204.508 113.754 204.332 114.186C204.172 114.602 204.092 115.05 204.092 115.53C204.092 116.122 204.18 116.658 204.356 117.138C204.532 117.618 204.772 118.026 205.076 118.362C205.396 118.698 205.772 118.954 206.204 119.13C206.636 119.306 207.108 119.394 207.62 119.394ZM224.586 109.05H227.178V121.338H224.586V116.25H218.466V121.338H215.874V109.05H218.466V113.97H224.586V109.05ZM235.557 121.482C234.597 121.482 233.725 121.338 232.941 121.05C232.173 120.746 231.517 120.322 230.973 119.778C230.429 119.218 230.005 118.554 229.701 117.786C229.413 117.018 229.269 116.162 229.269 115.218C229.269 114.274 229.413 113.418 229.701 112.65C229.989 111.866 230.397 111.202 230.925 110.658C231.453 110.098 232.085 109.666 232.821 109.362C233.573 109.058 234.405 108.906 235.317 108.906C236.213 108.906 237.021 109.042 237.741 109.314C238.477 109.586 239.101 109.978 239.613 110.49C240.141 110.986 240.549 111.602 240.837 112.338C241.141 113.058 241.301 113.866 241.317 114.762C241.317 115.082 241.293 115.41 241.245 115.746H231.981V115.914C232.013 116.97 232.333 117.81 232.941 118.434C233.565 119.058 234.389 119.37 235.413 119.37C236.213 119.37 236.885 119.186 237.429 118.818C237.973 118.434 238.333 117.898 238.509 117.21H241.101C240.989 117.818 240.781 118.386 240.477 118.914C240.173 119.426 239.781 119.874 239.301 120.258C238.837 120.642 238.285 120.946 237.645 121.17C237.021 121.378 236.325 121.482 235.557 121.482ZM238.629 113.85C238.517 112.938 238.165 112.234 237.573 111.738C236.997 111.242 236.253 110.994 235.341 110.994C234.509 110.994 233.781 111.25 233.157 111.762C232.533 112.274 232.173 112.97 232.077 113.85H238.629ZM249.245 121.482C248.285 121.482 247.413 121.338 246.629 121.05C245.861 120.746 245.205 120.322 244.661 119.778C244.117 119.218 243.693 118.554 243.389 117.786C243.101 117.018 242.957 116.162 242.957 115.218C242.957 114.274 243.101 113.418 243.389 112.65C243.677 111.866 244.085 111.202 244.613 110.658C245.141 110.098 245.773 109.666 246.509 109.362C247.261 109.058 248.093 108.906 249.005 108.906C249.901 108.906 250.709 109.042 251.429 109.314C252.165 109.586 252.789 109.978 253.301 110.49C253.829 110.986 254.237 111.602 254.525 112.338C254.829 113.058 254.989 113.866 255.005 114.762C255.005 115.082 254.981 115.41 254.933 115.746H245.669V115.914C245.701 116.97 246.021 117.81 246.629 118.434C247.253 119.058 248.077 119.37 249.101 119.37C249.901 119.37 250.573 119.186 251.117 118.818C251.661 118.434 252.021 117.898 252.197 117.21H254.789C254.677 117.818 254.469 118.386 254.165 118.914C253.861 119.426 253.469 119.874 252.989 120.258C252.525 120.642 251.973 120.946 251.333 121.17C250.709 121.378 250.013 121.482 249.245 121.482ZM252.317 113.85C252.205 112.938 251.853 112.234 251.261 111.738C250.685 111.242 249.941 110.994 249.029 110.994C248.197 110.994 247.469 111.25 246.845 111.762C246.221 112.274 245.861 112.97 245.765 113.85H252.317ZM133.58 145.482C132.652 145.482 131.796 145.33 131.012 145.026C130.244 144.722 129.588 144.298 129.044 143.754C128.5 143.194 128.076 142.53 127.772 141.762C127.468 140.994 127.316 140.138 127.316 139.194C127.316 138.25 127.468 137.394 127.772 136.626C128.076 135.858 128.5 135.202 129.044 134.658C129.588 134.098 130.244 133.666 131.012 133.362C131.796 133.058 132.652 132.906 133.58 132.906C134.524 132.906 135.38 133.058 136.148 133.362C136.916 133.666 137.572 134.098 138.116 134.658C138.66 135.202 139.084 135.858 139.388 136.626C139.692 137.394 139.844 138.25 139.844 139.194C139.844 140.138 139.692 140.994 139.388 141.762C139.084 142.53 138.66 143.194 138.116 143.754C137.572 144.298 136.916 144.722 136.148 145.026C135.38 145.33 134.524 145.482 133.58 145.482ZM133.58 143.274C134.124 143.274 134.62 143.178 135.068 142.986C135.516 142.778 135.892 142.498 136.196 142.146C136.516 141.778 136.764 141.346 136.94 140.85C137.116 140.338 137.204 139.786 137.204 139.194C137.204 138.602 137.116 138.058 136.94 137.562C136.764 137.05 136.516 136.618 136.196 136.266C135.892 135.898 135.516 135.618 135.068 135.426C134.62 135.218 134.124 135.114 133.58 135.114C133.036 135.114 132.54 135.218 132.092 135.426C131.644 135.618 131.26 135.898 130.94 136.266C130.636 136.618 130.396 137.05 130.22 137.562C130.06 138.058 129.98 138.602 129.98 139.194C129.98 139.786 130.06 140.338 130.22 140.85C130.396 141.346 130.636 141.778 130.94 142.146C131.26 142.498 131.644 142.778 132.092 142.986C132.54 143.178 133.036 143.274 133.58 143.274ZM154.645 132.906C155.493 132.906 156.269 133.05 156.973 133.338C157.677 133.626 158.285 134.042 158.797 134.586C159.325 135.114 159.733 135.77 160.021 136.554C160.309 137.322 160.453 138.202 160.453 139.194C160.453 140.138 160.309 141.002 160.021 141.786C159.733 142.554 159.325 143.218 158.797 143.778C158.285 144.322 157.677 144.746 156.973 145.05C156.269 145.338 155.493 145.482 154.645 145.482C153.685 145.482 152.877 145.314 152.221 144.978C151.565 144.626 151.045 144.17 150.661 143.61V150.138H148.069V133.05H150.325L150.637 134.874C151.053 134.33 151.581 133.866 152.221 133.482C152.877 133.098 153.685 132.906 154.645 132.906ZM154.213 143.298C154.757 143.298 155.245 143.202 155.677 143.01C156.125 142.802 156.501 142.514 156.805 142.146C157.125 141.778 157.373 141.346 157.549 140.85C157.725 140.338 157.813 139.786 157.813 139.194C157.813 138.586 157.725 138.034 157.549 137.538C157.373 137.042 157.125 136.618 156.805 136.266C156.501 135.898 156.125 135.618 155.677 135.426C155.245 135.218 154.757 135.114 154.213 135.114C153.669 135.114 153.173 135.218 152.725 135.426C152.293 135.618 151.917 135.89 151.597 136.242C151.293 136.594 151.053 137.018 150.877 137.514C150.717 138.01 150.637 138.554 150.637 139.146C150.637 139.754 150.717 140.314 150.877 140.826C151.053 141.338 151.293 141.778 151.597 142.146C151.917 142.514 152.293 142.802 152.725 143.01C153.173 143.202 153.669 143.298 154.213 143.298ZM168.362 145.482C167.402 145.482 166.53 145.338 165.746 145.05C164.978 144.746 164.322 144.322 163.778 143.778C163.234 143.218 162.81 142.554 162.506 141.786C162.218 141.018 162.074 140.162 162.074 139.218C162.074 138.274 162.218 137.418 162.506 136.65C162.794 135.866 163.202 135.202 163.73 134.658C164.258 134.098 164.89 133.666 165.626 133.362C166.378 133.058 167.21 132.906 168.122 132.906C169.018 132.906 169.826 133.042 170.546 133.314C171.282 133.586 171.906 133.978 172.418 134.49C172.946 134.986 173.354 135.602 173.642 136.338C173.946 137.058 174.106 137.866 174.122 138.762C174.122 139.082 174.098 139.41 174.05 139.746H164.786V139.914C164.818 140.97 165.138 141.81 165.746 142.434C166.37 143.058 167.194 143.37 168.218 143.37C169.018 143.37 169.69 143.186 170.234 142.818C170.778 142.434 171.138 141.898 171.314 141.21H173.906C173.794 141.818 173.586 142.386 173.282 142.914C172.978 143.426 172.586 143.874 172.106 144.258C171.642 144.642 171.09 144.946 170.45 145.17C169.826 145.378 169.13 145.482 168.362 145.482ZM171.434 137.85C171.322 136.938 170.97 136.234 170.378 135.738C169.802 135.242 169.058 134.994 168.146 134.994C167.314 134.994 166.586 135.25 165.962 135.762C165.338 136.274 164.978 136.97 164.882 137.85H171.434ZM183.854 139.002C184.67 139.13 185.302 139.426 185.75 139.89C186.198 140.338 186.422 140.97 186.422 141.786C186.422 142.922 185.918 143.826 184.91 144.498C183.918 145.154 182.55 145.482 180.806 145.482C178.966 145.482 177.63 145.13 176.798 144.426C175.982 143.706 175.542 142.69 175.478 141.378H178.094C178.206 142.066 178.462 142.594 178.862 142.962C179.262 143.314 179.918 143.49 180.83 143.49C181.742 143.49 182.462 143.33 182.99 143.01C183.518 142.69 183.782 142.25 183.782 141.69C183.782 141.13 183.59 140.73 183.206 140.49C182.838 140.25 182.294 140.13 181.574 140.13H179.654V138.138H181.406C182.078 138.138 182.598 138.01 182.966 137.754C183.334 137.482 183.518 137.066 183.518 136.506C183.518 136.01 183.294 135.626 182.846 135.354C182.398 135.066 181.766 134.922 180.95 134.922C180.054 134.922 179.39 135.098 178.958 135.45C178.542 135.802 178.278 136.282 178.166 136.89H175.55C175.63 135.69 176.134 134.73 177.062 134.01C178.006 133.274 179.326 132.906 181.022 132.906C182.67 132.906 183.934 133.218 184.814 133.842C185.71 134.466 186.158 135.306 186.158 136.362C186.158 137.114 185.942 137.714 185.51 138.162C185.094 138.594 184.542 138.874 183.854 139.002ZM186.876 133.05H189.636L193.068 142.386L196.404 133.05H199.164L193.596 147.258C193.404 147.754 193.22 148.178 193.044 148.53C192.868 148.898 192.66 149.202 192.42 149.442C192.196 149.682 191.932 149.858 191.628 149.97C191.324 150.082 190.948 150.138 190.5 150.138H187.716V147.858H189.54C189.796 147.858 190.004 147.842 190.164 147.81C190.324 147.778 190.46 147.714 190.572 147.618C190.7 147.522 190.804 147.394 190.884 147.234C190.98 147.074 191.076 146.866 191.172 146.61L191.652 145.41L186.876 133.05ZM198.642 145.338V143.058H199.074C199.394 143.058 199.666 143.002 199.89 142.89C200.114 142.762 200.298 142.546 200.442 142.242C200.586 141.938 200.69 141.522 200.754 140.994C200.818 140.466 200.85 139.786 200.85 138.954V133.05H210.618V145.338H208.026V135.33H203.298V139.05C203.298 140.266 203.218 141.282 203.058 142.098C202.898 142.898 202.658 143.538 202.338 144.018C202.034 144.498 201.642 144.842 201.162 145.05C200.682 145.242 200.122 145.338 199.482 145.338H198.642ZM213.155 145.338V133.05H215.747V136.866H218.795C220.347 136.866 221.547 137.242 222.395 137.994C223.259 138.73 223.691 139.77 223.691 141.114C223.691 142.442 223.259 143.482 222.395 144.234C221.547 144.97 220.347 145.338 218.795 145.338H213.155ZM215.747 143.274H218.363C219.243 143.274 219.907 143.09 220.355 142.722C220.819 142.338 221.051 141.802 221.051 141.114C221.051 139.658 220.155 138.93 218.363 138.93H215.747V143.274ZM227.408 145.338V135.33H223.232V133.05H234.176V135.33H230V145.338H227.408ZM246.876 143.082V145.338H245.508C244.66 145.338 244.068 145.162 243.732 144.81C243.412 144.458 243.252 143.978 243.252 143.37C242.836 143.994 242.308 144.506 241.668 144.906C241.028 145.29 240.204 145.482 239.196 145.482C238.524 145.482 237.908 145.402 237.348 145.242C236.788 145.082 236.308 144.85 235.908 144.546C235.508 144.226 235.196 143.85 234.972 143.418C234.748 142.97 234.636 142.458 234.636 141.882C234.636 140.618 235.076 139.65 235.956 138.978C236.852 138.29 238.164 137.946 239.892 137.946H242.988V137.202C242.988 136.514 242.756 135.978 242.292 135.594C241.828 135.194 241.164 134.994 240.3 134.994C239.532 134.994 238.9 135.162 238.404 135.498C237.924 135.818 237.636 136.25 237.54 136.794H234.996C235.06 136.186 235.236 135.642 235.524 135.162C235.812 134.682 236.188 134.274 236.652 133.938C237.116 133.602 237.668 133.346 238.308 133.17C238.948 132.994 239.652 132.906 240.42 132.906C242.068 132.906 243.332 133.29 244.212 134.058C245.108 134.81 245.556 135.914 245.556 137.37V142.29C245.556 142.61 245.62 142.826 245.748 142.938C245.876 143.034 246.076 143.082 246.348 143.082H246.876ZM242.988 139.866H239.772C238.956 139.866 238.332 140.018 237.9 140.322C237.484 140.626 237.276 141.09 237.276 141.714C237.276 142.226 237.476 142.65 237.876 142.986C238.276 143.306 238.836 143.466 239.556 143.466C240.644 143.466 241.484 143.178 242.076 142.602C242.668 142.026 242.972 141.258 242.988 140.298V139.866ZM250.775 145.338V135.33H246.599V133.05H257.543V135.33H253.367V145.338H250.775ZM270.243 143.082V145.338H268.875C268.027 145.338 267.435 145.162 267.099 144.81C266.779 144.458 266.619 143.978 266.619 143.37C266.203 143.994 265.675 144.506 265.035 144.906C264.395 145.29 263.571 145.482 262.563 145.482C261.891 145.482 261.275 145.402 260.715 145.242C260.155 145.082 259.675 144.85 259.275 144.546C258.875 144.226 258.563 143.85 258.339 143.418C258.115 142.97 258.003 142.458 258.003 141.882C258.003 140.618 258.443 139.65 259.323 138.978C260.219 138.29 261.531 137.946 263.259 137.946H266.355V137.202C266.355 136.514 266.123 135.978 265.659 135.594C265.195 135.194 264.531 134.994 263.667 134.994C262.899 134.994 262.267 135.162 261.771 135.498C261.291 135.818 261.003 136.25 260.907 136.794H258.363C258.427 136.186 258.603 135.642 258.891 135.162C259.179 134.682 259.555 134.274 260.019 133.938C260.483 133.602 261.035 133.346 261.675 133.17C262.315 132.994 263.019 132.906 263.787 132.906C265.435 132.906 266.699 133.29 267.579 134.058C268.475 134.81 268.923 135.914 268.923 137.37V142.29C268.923 142.61 268.987 142.826 269.115 142.938C269.243 143.034 269.443 143.082 269.715 143.082H270.243ZM266.355 139.866H263.139C262.323 139.866 261.699 140.018 261.267 140.322C260.851 140.626 260.643 141.09 260.643 141.714C260.643 142.226 260.843 142.65 261.243 142.986C261.643 143.306 262.203 143.466 262.923 143.466C264.011 143.466 264.851 143.178 265.443 142.602C266.035 142.026 266.339 141.258 266.355 140.298V139.866ZM275.296 139.05L270.952 133.05H273.976L276.904 137.202L279.904 133.05H282.76L278.392 139.05L283.023 145.338H280L276.784 140.874L273.544 145.338H270.688L275.296 139.05ZM134.252 174.138V169.434C133.196 169.402 132.236 169.234 131.372 168.93C130.524 168.626 129.796 168.202 129.188 167.658C128.596 167.114 128.132 166.466 127.796 165.714C127.476 164.962 127.316 164.122 127.316 163.194C127.316 162.282 127.476 161.45 127.796 160.698C128.132 159.946 128.596 159.298 129.188 158.754C129.796 158.21 130.524 157.786 131.372 157.482C132.236 157.178 133.196 157.002 134.252 156.954V152.922H136.796V156.954C137.852 157.002 138.804 157.178 139.652 157.482C140.516 157.786 141.244 158.21 141.836 158.754C142.444 159.282 142.908 159.922 143.228 160.674C143.564 161.426 143.732 162.266 143.732 163.194C143.732 164.106 143.564 164.938 143.228 165.69C142.908 166.442 142.444 167.09 141.836 167.634C141.244 168.178 140.516 168.61 139.652 168.93C138.804 169.234 137.852 169.402 136.796 169.434V174.138H134.252ZM134.276 159.138C132.916 159.186 131.852 159.57 131.084 160.29C130.316 160.994 129.932 161.962 129.932 163.194C129.932 164.442 130.316 165.418 131.084 166.122C131.852 166.826 132.916 167.202 134.276 167.25V159.138ZM136.772 167.25C138.132 167.202 139.188 166.826 139.94 166.122C140.708 165.418 141.092 164.442 141.092 163.194C141.092 161.962 140.708 160.994 139.94 160.29C139.188 159.57 138.132 159.186 136.772 159.138V167.25ZM151.627 169.482C150.699 169.482 149.843 169.33 149.059 169.026C148.291 168.722 147.635 168.298 147.091 167.754C146.547 167.194 146.123 166.53 145.819 165.762C145.515 164.994 145.363 164.138 145.363 163.194C145.363 162.25 145.515 161.394 145.819 160.626C146.123 159.858 146.547 159.202 147.091 158.658C147.635 158.098 148.291 157.666 149.059 157.362C149.843 157.058 150.699 156.906 151.627 156.906C152.571 156.906 153.427 157.058 154.195 157.362C154.963 157.666 155.619 158.098 156.163 158.658C156.707 159.202 157.131 159.858 157.435 160.626C157.739 161.394 157.891 162.25 157.891 163.194C157.891 164.138 157.739 164.994 157.435 165.762C157.131 166.53 156.707 167.194 156.163 167.754C155.619 168.298 154.963 168.722 154.195 169.026C153.427 169.33 152.571 169.482 151.627 169.482ZM151.627 167.274C152.171 167.274 152.667 167.178 153.115 166.986C153.563 166.778 153.939 166.498 154.243 166.146C154.563 165.778 154.811 165.346 154.987 164.85C155.163 164.338 155.251 163.786 155.251 163.194C155.251 162.602 155.163 162.058 154.987 161.562C154.811 161.05 154.563 160.618 154.243 160.266C153.939 159.898 153.563 159.618 153.115 159.426C152.667 159.218 152.171 159.114 151.627 159.114C151.083 159.114 150.587 159.218 150.139 159.426C149.691 159.618 149.307 159.898 148.987 160.266C148.683 160.618 148.443 161.05 148.267 161.562C148.107 162.058 148.027 162.602 148.027 163.194C148.027 163.786 148.107 164.338 148.267 164.85C148.443 165.346 148.683 165.778 148.987 166.146C149.307 166.498 149.691 166.778 150.139 166.986C150.587 167.178 151.083 167.274 151.627 167.274ZM168.687 157.05H171.279V169.338H168.687V164.25H162.567V169.338H159.975V157.05H162.567V161.97H168.687V157.05ZM185.227 167.058H187.219V172.578H184.675V169.338H175.291V172.578H172.747V167.058H174.019C174.243 166.914 174.435 166.746 174.595 166.554C174.755 166.346 174.891 166.066 175.003 165.714C175.115 165.346 175.195 164.874 175.243 164.298C175.307 163.722 175.339 162.994 175.339 162.114V157.05H185.227V167.058ZM182.635 167.058V159.33H177.787V162.402C177.787 163.634 177.715 164.61 177.571 165.33C177.427 166.034 177.219 166.61 176.947 167.058H182.635ZM200.516 167.082V169.338H199.148C198.3 169.338 197.708 169.162 197.372 168.81C197.052 168.458 196.892 167.978 196.892 167.37C196.476 167.994 195.948 168.506 195.308 168.906C194.668 169.29 193.844 169.482 192.836 169.482C192.164 169.482 191.548 169.402 190.988 169.242C190.428 169.082 189.948 168.85 189.548 168.546C189.148 168.226 188.836 167.85 188.612 167.418C188.388 166.97 188.276 166.458 188.276 165.882C188.276 164.618 188.716 163.65 189.596 162.978C190.492 162.29 191.804 161.946 193.532 161.946H196.628V161.202C196.628 160.514 196.396 159.978 195.932 159.594C195.468 159.194 194.804 158.994 193.94 158.994C193.172 158.994 192.54 159.162 192.044 159.498C191.564 159.818 191.276 160.25 191.18 160.794H188.636C188.7 160.186 188.876 159.642 189.164 159.162C189.452 158.682 189.828 158.274 190.292 157.938C190.756 157.602 191.308 157.346 191.948 157.17C192.588 156.994 193.292 156.906 194.06 156.906C195.708 156.906 196.972 157.29 197.852 158.058C198.748 158.81 199.196 159.914 199.196 161.37V166.29C199.196 166.61 199.26 166.826 199.388 166.938C199.516 167.034 199.716 167.082 199.988 167.082H200.516ZM196.628 163.866H193.412C192.596 163.866 191.972 164.018 191.54 164.322C191.124 164.626 190.916 165.09 190.916 165.714C190.916 166.226 191.116 166.65 191.516 166.986C191.916 167.306 192.476 167.466 193.196 167.466C194.284 167.466 195.124 167.178 195.716 166.602C196.308 166.026 196.612 165.258 196.628 164.298V163.866Z" fill="white"/>
<g filter="url(#filter1_d_225_11)">
<path d="M88.5711 327.54C119.091 327.54 143.831 302.835 143.831 272.359C143.831 241.883 119.091 217.177 88.5711 217.177C58.0517 217.177 33.3108 241.883 33.3108 272.359C33.3108 302.835 58.0517 327.54 88.5711 327.54Z" fill="#E681FF"/>
<path d="M88.5715 218.679C118.263 218.679 142.33 242.714 142.33 272.358C142.33 302.003 118.263 326.039 88.5715 326.039C58.8794 326.039 34.8127 302.003 34.8127 272.358C34.8129 242.714 58.8795 218.679 88.5715 218.679Z" stroke="#293245" stroke-width="3.00323"/>
</g>
<path d="M122.6 268.835C122.888 268.782 123.183 268.789 123.468 268.857C124.049 269.008 124.557 269.364 124.897 269.862C125.233 270.354 125.381 270.951 125.317 271.545C123.587 279.983 119.044 287.58 112.436 293.082C105.815 298.595 97.5166 301.675 88.9139 301.815C80.311 301.955 71.9179 299.145 65.1219 293.85C58.3323 288.56 53.5429 281.106 51.5447 272.717C51.4234 272.147 51.5285 271.552 51.8377 271.06C52.1469 270.568 52.6351 270.218 53.1971 270.083L53.2293 270.075L53.2615 270.065C53.5481 269.977 53.8499 269.95 54.1473 269.986C54.4448 270.023 54.7313 270.122 54.9881 270.276C55.2454 270.431 55.4681 270.64 55.6404 270.886C55.8128 271.134 55.9317 271.414 55.9891 271.711L55.994 271.736L55.9998 271.761C57.7947 279.107 62.0238 285.624 67.994 290.244C73.9643 294.864 81.3228 297.314 88.8631 297.191C96.4032 297.068 103.678 294.38 109.495 289.567C115.312 284.755 119.327 278.103 120.883 270.703L120.89 270.665L120.895 270.628C120.935 270.334 121.037 270.053 121.191 269.802C121.346 269.551 121.552 269.335 121.795 269.169C122.037 269.002 122.312 268.888 122.6 268.835Z" fill="#293245" stroke="#293245" stroke-width="2.14516"/>
<path d="M74.1282 243.21C75.5553 243.21 76.9295 243.771 77.9603 244.777C78.9824 245.775 79.5861 247.135 79.6468 248.575C79.5862 250.015 78.9824 251.375 77.9603 252.372C76.9295 253.379 75.5553 253.939 74.1282 253.939C72.7011 253.939 71.327 253.379 70.2962 252.372C69.274 251.375 68.6693 250.015 68.6087 248.575C68.6693 247.135 69.274 245.775 70.2962 244.777C71.327 243.771 72.7011 243.21 74.1282 243.21Z" fill="#293245" stroke="#293245" stroke-width="2.14516"/>
<path d="M101.971 243.211H102.008C102.731 243.199 103.449 243.329 104.122 243.594C104.794 243.859 105.407 244.254 105.925 244.755C106.444 245.257 106.859 245.855 107.145 246.516C107.427 247.168 107.578 247.868 107.592 248.578C107.535 250.013 106.925 251.372 105.886 252.372C104.842 253.376 103.446 253.939 101.994 253.939C100.541 253.939 99.1465 253.376 98.1022 252.372C97.063 251.372 96.4522 250.012 96.3951 248.575C96.4084 247.866 96.5592 247.166 96.8405 246.515C97.1258 245.855 97.5394 245.257 98.0573 244.755C98.5753 244.254 99.1883 243.859 99.86 243.594C100.532 243.329 101.249 243.199 101.971 243.211Z" fill="#293245" stroke="#293245" stroke-width="2.14516"/>
<g filter="url(#filter2_d_225_11)">
<path d="M329.128 286.231L329.359 285.924C329.452 285.801 329.544 285.693 329.621 285.57L329.867 285.171L330.052 284.849C330.129 284.711 330.191 284.573 330.252 284.435C330.314 284.296 330.36 284.204 330.422 284.082L330.56 283.682C330.56 283.544 330.668 283.421 330.699 283.299C330.742 283.157 330.778 283.014 330.807 282.869C330.845 282.743 330.875 282.615 330.899 282.485C330.939 282.313 330.969 282.139 330.991 281.963V281.656C331.037 281.089 331.037 280.519 330.991 279.952V279.63C330.991 279.461 330.991 279.292 330.899 279.123C330.875 278.989 330.845 278.856 330.807 278.724C330.778 278.584 330.742 278.446 330.699 278.31C330.662 278.179 330.616 278.051 330.56 277.926L330.422 277.512L330.252 277.159C330.195 277.021 330.128 276.888 330.052 276.76L329.867 276.422C329.867 276.299 329.713 276.161 329.621 276.038C329.542 275.914 329.455 275.796 329.359 275.685L329.128 275.363C328.943 275.148 328.759 274.933 328.559 274.733L301.197 247.456C299.576 245.876 297.396 244.998 295.129 245.011C292.862 245.025 290.692 245.929 289.091 247.528C287.489 249.127 286.584 251.292 286.573 253.552C286.563 255.811 287.447 257.984 289.033 259.598L301.705 272.216H244.581C242.298 272.216 240.109 273.12 238.495 274.729C236.881 276.338 235.974 278.521 235.974 280.797C235.974 283.072 236.881 285.255 238.495 286.864C240.109 288.473 242.298 289.377 244.581 289.377H301.705L289.033 302.01C288.185 302.795 287.505 303.743 287.032 304.796C286.56 305.849 286.305 306.986 286.284 308.14C286.262 309.293 286.474 310.439 286.907 311.509C287.34 312.579 287.985 313.551 288.803 314.367C289.621 315.182 290.596 315.825 291.67 316.257C292.743 316.688 293.892 316.9 295.049 316.878C296.206 316.857 297.347 316.603 298.403 316.132C299.46 315.661 300.41 314.983 301.197 314.137L328.559 286.86C328.76 286.661 328.95 286.451 329.128 286.231Z" fill="#BC7AFF"/>
<path d="M295.138 246.511C296.894 246.501 298.587 247.138 299.894 248.293L300.151 248.531L327.499 275.795C327.64 275.935 327.776 276.091 327.946 276.289L328.14 276.559L328.178 276.612L328.221 276.663C328.27 276.719 328.315 276.78 328.355 276.843L328.387 276.893L328.422 276.94C328.441 276.965 328.461 276.987 328.479 277.009L328.551 277.142L328.736 277.479L328.748 277.501L328.761 277.523C328.802 277.592 328.837 277.663 328.868 277.737L328.883 277.772L328.9 277.807L329.029 278.077L329.138 278.402L329.161 278.47L329.19 278.537C329.216 278.595 329.238 278.655 329.255 278.716L329.261 278.74L329.269 278.762C329.296 278.849 329.319 278.937 329.337 279.026L329.349 279.085L329.366 279.142C329.388 279.221 329.407 279.301 329.421 279.381L329.464 279.626L329.492 279.675V280.013L329.496 280.074C329.536 280.56 329.536 281.049 329.496 281.535L329.492 281.595V281.854C329.477 281.953 329.459 282.051 329.437 282.149L329.429 282.183L329.423 282.217C329.41 282.291 329.392 282.364 329.37 282.435L329.349 282.506L329.335 282.578C329.32 282.658 329.297 282.737 329.275 282.815C329.273 282.819 329.271 282.824 329.269 282.829C329.243 282.881 329.193 282.988 329.15 283.122C329.132 283.178 329.114 283.242 329.099 283.315L329.031 283.511C328.985 283.602 328.938 283.699 328.882 283.824C328.817 283.969 328.781 284.046 328.742 284.117L328.573 284.412L328.35 284.774C328.349 284.775 328.346 284.779 328.34 284.788C328.333 284.798 328.323 284.812 328.307 284.833C328.289 284.855 328.273 284.877 328.246 284.911C328.222 284.941 328.192 284.98 328.161 285.022L327.952 285.299C327.812 285.472 327.663 285.637 327.505 285.793L327.499 285.797L300.138 313.075L300.119 313.094L300.1 313.115C299.45 313.813 298.665 314.373 297.792 314.762C296.92 315.151 295.978 315.361 295.022 315.378C294.066 315.396 293.115 315.221 292.229 314.865C291.343 314.508 290.538 313.977 289.863 313.304C289.187 312.631 288.654 311.829 288.297 310.947C287.94 310.064 287.766 309.119 287.784 308.168C287.801 307.216 288.011 306.278 288.401 305.41C288.79 304.541 289.352 303.759 290.052 303.111L290.073 303.092L290.092 303.073L302.764 290.44L305.334 287.877H244.581C242.695 287.877 240.887 287.131 239.554 285.802C238.222 284.474 237.474 282.673 237.474 280.796C237.474 278.92 238.222 277.12 239.554 275.792C240.887 274.463 242.695 273.716 244.581 273.716H305.338L302.764 271.153L290.092 258.535C288.79 257.204 288.065 255.416 288.074 253.558C288.083 251.695 288.828 249.91 290.15 248.59C291.472 247.27 293.265 246.522 295.138 246.511Z" stroke="#293245" stroke-width="3"/>
</g>
<g filter="url(#filter3_d_225_11)">
<path d="M170.738 311.342C156.839 299.376 135.878 300.963 123.934 314.883C112.006 328.786 113.588 349.733 127.47 361.683L183.828 410.2C183.956 410.31 184.076 410.43 184.186 410.559L184.464 410.883C184.502 410.939 184.584 410.939 184.621 410.883L184.899 410.559C185.01 410.43 185.129 410.31 185.258 410.2L241.616 361.683C255.497 349.733 257.08 328.786 245.151 314.883C233.208 300.963 212.246 299.376 198.347 311.342L186.737 321.336C185.476 322.422 183.61 322.422 182.348 321.336L170.738 311.342Z" fill="#8D83FF"/>
<path d="M199.627 312.829C212.704 301.572 232.425 303.064 243.662 316.161C254.886 329.243 253.397 348.952 240.335 360.196L184.542 408.225L128.75 360.196C115.689 348.952 114.2 329.243 125.423 316.161C136.66 303.063 156.381 301.572 169.458 312.829L181.068 322.824C183.065 324.543 186.02 324.543 188.017 322.824L199.627 312.829Z" stroke="#333333" stroke-width="3.92417"/>
</g>
<defs>
<filter id="filter0_d_225_11" x="48" y="20" width="313.721" height="222.56" filterUnits="userSpaceOnUse" color-interpolation-filters="sRGB">
<feFlood flood-opacity="0" result="BackgroundImageFix"/>
<feColorMatrix in="SourceAlpha" type="matrix" values="0 0 0 0 0 0 0 0 0 0 0 0 0 0 0 0 0 0 127 0" result="hardAlpha"/>
<feOffset dx="9.72093" dy="19.8837"/>
<feComposite in2="hardAlpha" operator="out"/>
<feColorMatrix type="matrix" values="0 0 0 0 0.2 0 0 0 0 0.2 0 0 0 0 0.2 0 0 0 1 0"/>
<feBlend mode="normal" in2="BackgroundImageFix" result="effect1_dropShadow_225_11"/>
<feBlend mode="normal" in="SourceGraphic" in2="effect1_dropShadow_225_11" result="shape"/>
</filter>
<filter id="filter1_d_225_11" x="33.3108" y="217.177" width="115.24" height="120.017" filterUnits="userSpaceOnUse" color-interpolation-filters="sRGB">
<feFlood flood-opacity="0" result="BackgroundImageFix"/>
<feColorMatrix in="SourceAlpha" type="matrix" values="0 0 0 0 0 0 0 0 0 0 0 0 0 0 0 0 0 0 127 0" result="hardAlpha"/>
<feOffset dx="4.71936" dy="9.65323"/>
<feComposite in2="hardAlpha" operator="out"/>
<feColorMatrix type="matrix" values="0 0 0 0 0.2 0 0 0 0 0.2 0 0 0 0 0.2 0 0 0 1 0"/>
<feBlend mode="normal" in2="BackgroundImageFix" result="effect1_dropShadow_225_11"/>
<feBlend mode="normal" in="SourceGraphic" in2="effect1_dropShadow_225_11" result="shape"/>
</filter>
<filter id="filter2_d_225_11" x="235.974" y="245.011" width="98.1641" height="74.8686" filterUnits="userSpaceOnUse" color-interpolation-filters="sRGB">
<feFlood flood-opacity="0" result="BackgroundImageFix"/>
<feColorMatrix in="SourceAlpha" type="matrix" values="0 0 0 0 0 0 0 0 0 0 0 0 0 0 0 0 0 0 127 0" result="hardAlpha"/>
<feOffset dx="3.1122" dy="3"/>
<feComposite in2="hardAlpha" operator="out"/>
<feColorMatrix type="matrix" values="0 0 0 0 0.2 0 0 0 0 0.2 0 0 0 0 0.2 0 0 0 1 0"/>
<feBlend mode="normal" in2="BackgroundImageFix" result="effect1_dropShadow_225_11"/>
<feBlend mode="normal" in="SourceGraphic" in2="effect1_dropShadow_225_11" result="shape"/>
</filter>
<filter id="filter3_d_225_11" x="115.928" y="303.31" width="143.396" height="120.228" filterUnits="userSpaceOnUse" color-interpolation-filters="sRGB">
<feFlood flood-opacity="0" result="BackgroundImageFix"/>
<feColorMatrix in="SourceAlpha" type="matrix" values="0 0 0 0 0 0 0 0 0 0 0 0 0 0 0 0 0 0 127 0" result="hardAlpha"/>
<feOffset dx="6.16655" dy="12.6134"/>
<feComposite in2="hardAlpha" operator="out"/>
<feColorMatrix type="matrix" values="0 0 0 0 0.156863 0 0 0 0 0.192157 0 0 0 0 0.266667 0 0 0 1 0"/>
<feBlend mode="normal" in2="BackgroundImageFix" result="effect1_dropShadow_225_11"/>
<feBlend mode="normal" in="SourceGraphic" in2="effect1_dropShadow_225_11" result="shape"/>
</filter>
</defs>
</svg>
