<svg width="17" height="16" viewBox="0 0 17 16" fill="none" xmlns="http://www.w3.org/2000/svg">
<path d="M14.4375 3.56251C13.7582 2.88492 12.8383 2.50388 11.8788 2.50271C10.9193 2.50153 9.99845 2.88033 9.3175 3.55626L8.5 4.31564L7.68188 3.55376C7.0011 2.87489 6.07853 2.49426 5.11711 2.49561C4.15569 2.49696 3.23419 2.88017 2.55532 3.56095C1.87645 4.24173 1.49582 5.1643 1.49717 6.12572C1.49851 7.08714 1.88173 8.00864 2.56251 8.68751L8.14688 14.3538C8.1934 14.401 8.24886 14.4385 8.31002 14.4641C8.37118 14.4897 8.43682 14.5029 8.50313 14.5029C8.56944 14.5029 8.63508 14.4897 8.69624 14.4641C8.7574 14.4385 8.81286 14.401 8.85938 14.3538L14.4375 8.68751C15.1169 8.00775 15.4985 7.08605 15.4985 6.12501C15.4985 5.16398 15.1169 4.24227 14.4375 3.56251ZM13.7281 7.98501L8.5 13.2875L3.26875 7.98001C2.77645 7.4877 2.49987 6.81999 2.49987 6.12376C2.49987 5.42753 2.77645 4.75982 3.26875 4.26751C3.76106 3.7752 4.42878 3.49863 5.12501 3.49863C5.82123 3.49863 6.48895 3.7752 6.98125 4.26751L6.99375 4.28001L8.15938 5.36439C8.25191 5.45049 8.37361 5.49836 8.5 5.49836C8.6264 5.49836 8.7481 5.45049 8.84063 5.36439L10.0063 4.28001L10.0188 4.26751C10.5114 3.77553 11.1793 3.49941 11.8755 3.49988C12.5718 3.50035 13.2393 3.77737 13.7313 4.27001C14.2232 4.76265 14.4994 5.43055 14.4989 6.12678C14.4984 6.82301 14.2214 7.49054 13.7288 7.98251L13.7281 7.98501Z" fill="white"/>
</svg>
